<?xml version="1.0" standalone="no"?>
<!DOCTYPE svg PUBLIC "-//W3C//DTD SVG 20010904//EN"
 "http://www.w3.org/TR/2001/REC-SVG-20010904/DTD/svg10.dtd">
<svg version="1.0" xmlns="http://www.w3.org/2000/svg"
 width="512.000000pt" height="512.000000pt" viewBox="0 0 512.000000 512.000000"
 preserveAspectRatio="xMidYMid meet">

<g transform="translate(0.000000,512.000000) scale(0.100000,-0.100000)"
fill="#000000" stroke="none">
<path d="M0 4726 c0 -306 3 -395 12 -399 18 -6 78 4 78 13 0 5 -4 10 -9 12 -5
2 -12 20 -16 41 l-7 37 35 0 c20 0 42 -6 49 -12 18 -17 191 -12 185 5 -2 8
-21 11 -49 9 -50 -4 -68 10 -44 33 19 19 30 19 67 -1 29 -14 31 -14 36 4 5 22
39 36 49 20 3 -5 1 -15 -5 -21 -17 -17 -13 -27 10 -27 12 0 27 8 34 17 11 15
14 15 31 -5 10 -12 22 -22 26 -22 4 0 30 -21 56 -47 26 -27 65 -59 86 -73 70
-47 86 -65 106 -122 17 -49 18 -68 11 -147 -5 -51 -11 -94 -14 -98 -4 -3 -13
0 -21 6 -12 10 -15 7 -21 -18 -8 -37 2 -71 20 -71 22 0 34 -64 36 -190 2 -147
3 -139 -26 -150 -29 -11 -32 -26 -7 -53 15 -17 17 -48 20 -276 3 -246 -3 -344
-28 -441 -8 -32 -8 -56 -1 -85 14 -51 16 -124 6 -202 -5 -44 -4 -67 4 -77 14
-16 13 -291 0 -318 -5 -9 -10 -112 -11 -228 -1 -204 -2 -210 -21 -210 -11 0
-28 7 -38 16 -21 19 -49 12 -49 -11 0 -8 20 -30 45 -47 25 -18 48 -42 51 -54
3 -13 1 -54 -5 -93 -6 -38 -11 -113 -11 -165 0 -63 -4 -96 -11 -96 -12 0 -10
-35 10 -152 17 -106 -9 -147 -59 -93 -13 14 -30 25 -38 25 -8 0 -35 15 -61 33
-46 33 -111 67 -128 67 -5 0 -31 20 -57 45 -27 25 -53 45 -58 45 -5 0 -23 13
-40 30 -31 31 -58 39 -58 17 0 -7 -13 -18 -30 -24 -41 -15 -50 -42 -21 -62 12
-9 43 -35 69 -59 26 -23 55 -45 64 -48 10 -3 18 -9 18 -14 0 -5 13 -11 29 -15
15 -3 41 -20 57 -36 16 -17 46 -40 67 -50 20 -11 37 -24 37 -29 0 -6 11 -15
25 -20 14 -5 25 -14 25 -19 0 -6 32 -25 70 -43 62 -29 72 -37 82 -71 8 -27 8
-43 0 -60 -6 -12 -10 -66 -9 -126 2 -64 -1 -105 -8 -107 -6 -3 -28 5 -50 16
-21 11 -47 20 -57 20 -10 0 -18 5 -18 10 0 6 -17 17 -38 26 -22 8 -51 32 -68
54 -16 22 -32 40 -36 40 -4 0 -23 13 -41 30 -43 37 -103 43 -94 9 4 -15 -1
-22 -18 -29 -13 -5 -26 -14 -30 -19 -9 -15 25 -58 58 -72 15 -6 27 -15 27 -20
0 -4 18 -18 40 -30 23 -13 46 -33 53 -45 41 -73 81 -120 180 -212 31 -29 57
-58 57 -65 0 -7 7 -21 15 -31 8 -11 15 -37 15 -58 l0 -38 1270 0 c1013 0 1270
3 1270 13 0 6 -5 28 -10 47 -6 19 -10 53 -10 75 0 94 -2 114 -21 190 -22 83
-21 183 1 224 16 31 11 107 -17 241 -24 120 -37 251 -28 296 3 12 17 26 32 32
52 21 124 35 133 26 8 -9 0 -292 -20 -649 -11 -193 -16 -295 -22 -420 l-3 -70
228 -3 227 -2 2 62 c1 35 2 79 3 98 13 315 29 873 27 923 -2 52 11 87 32 87
23 0 49 39 50 76 1 31 6 39 35 53 24 11 37 26 43 46 11 42 4 57 -39 80 -35 18
-38 24 -41 68 -3 44 -1 48 29 65 81 43 91 73 48 134 -25 36 -24 53 6 66 35 16
33 56 -5 92 -17 16 -41 30 -53 32 -19 3 -22 9 -23 56 0 28 2 69 5 89 5 31 11
38 39 45 43 11 50 33 22 63 -31 33 -74 49 -97 37 -33 -18 -108 -24 -152 -12
-24 6 -41 14 -38 17 9 9 129 32 168 33 20 0 42 6 48 13 14 18 3 145 -16 175
-23 36 -18 258 11 547 3 26 7 30 32 28 16 -1 41 -4 56 -8 15 -4 49 -4 74 0 40
6 45 9 41 27 -5 19 -3 20 43 14 26 -4 70 -2 96 4 35 8 61 8 97 -1 40 -9 51 -9
58 2 5 9 26 14 53 14 25 0 47 3 50 6 3 3 0 22 -6 42 -10 32 -8 43 12 87 15 33
30 50 44 52 15 2 24 14 31 43 6 22 23 59 38 82 15 24 26 46 25 50 -2 5 7 28
19 53 19 39 22 64 24 180 1 101 -3 146 -14 177 -9 23 -18 68 -21 101 l-5 60
30 6 c16 3 32 12 35 21 7 18 -33 85 -51 85 -21 0 -46 47 -39 74 3 13 1 27 -5
31 -6 3 -8 17 -5 29 4 19 -1 28 -28 47 -18 12 -40 29 -48 36 -8 8 -24 20 -35
28 -19 14 -19 16 -2 29 21 16 22 32 1 40 -10 4 -13 13 -9 26 4 14 1 22 -11 27
-10 4 -19 2 -22 -5 -9 -27 -55 -12 -93 30 -22 24 -39 46 -39 50 0 4 -25 32
-56 62 -44 42 -55 59 -50 74 5 15 1 24 -14 32 -11 6 -20 19 -20 30 0 10 -5 22
-10 25 -8 5 -8 11 -1 19 12 15 5 26 -17 26 -9 0 -12 -6 -8 -17 9 -21 -10 -33
-56 -33 -20 0 -38 -6 -40 -12 -7 -20 -57 7 -68 38 -6 14 -10 58 -11 97 -1 108
-7 120 -58 129 -23 4 -196 10 -384 12 -188 3 -445 13 -572 22 -126 9 -276 18
-332 20 -171 4 -607 34 -823 56 -182 18 -288 21 -942 24 l-738 4 0 -394z m735
-113 c13 -33 19 -163 7 -163 -6 0 -14 9 -17 20 -4 11 -18 28 -31 37 -15 10
-23 22 -19 31 3 8 -3 24 -12 35 -11 13 -14 21 -7 24 6 2 20 10 30 18 26 19 40
19 49 -2z m1656 -347 c8 -3 41 -7 74 -10 32 -4 63 -10 69 -16 13 -13 -18 -46
-49 -54 -14 -4 -29 -15 -35 -27 -10 -18 -8 -22 20 -32 33 -12 34 -20 10 -82
-8 -21 -14 -24 -34 -19 -19 4 -30 -1 -47 -20 -12 -14 -28 -26 -36 -26 -17 0
-39 -46 -46 -100 -6 -42 -4 -48 38 -100 l45 -55 -30 -27 c-55 -50 -34 -62 80
-46 61 8 89 8 124 -2 47 -13 53 -30 10 -30 -25 0 -33 -15 -11 -23 7 -3 1 -9
-14 -15 -15 -6 -31 -23 -37 -40 -5 -16 -33 -53 -61 -83 l-51 -53 -67 66 c-77
76 -104 98 -150 122 -44 22 -137 21 -190 -4 -59 -26 -164 -45 -339 -59 -55 -5
-109 -13 -120 -18 -36 -19 -184 -54 -196 -47 -8 5 -9 57 -4 188 4 100 9 251
12 336 3 85 9 180 12 210 7 55 8 55 39 52 18 -2 45 4 60 13 25 14 78 15 469
11 242 -3 447 -7 455 -10z m129 -968 c0 -13 -23 -5 -28 10 -2 7 2 10 12 6 9
-3 16 -11 16 -16z m432 -318 c15 -25 36 -61 47 -81 23 -43 77 -79 115 -79 30
0 34 14 9 29 -21 11 -21 10 35 45 23 14 42 33 42 42 0 21 34 14 38 -8 2 -11
-5 -19 -21 -23 -19 -5 -47 -40 -47 -59 0 -1 26 -15 58 -30 119 -57 106 -31
102 -196 -2 -80 -4 -157 -4 -173 -1 -32 -20 -41 -69 -32 -34 7 -65 -13 -53
-33 3 -5 0 -17 -7 -26 -31 -42 -67 20 -67 115 0 49 -11 89 -40 154 -10 22 -30
65 -44 95 -33 73 -94 164 -150 225 -25 27 -46 53 -46 57 0 12 34 28 54 25 11
-1 32 -22 48 -47z m956 44 c29 -8 28 -24 -2 -24 -33 0 -57 10 -50 21 6 10 20
11 52 3z m-630 -143 c3 -8 -1 -12 -9 -9 -7 2 -15 10 -17 17 -3 8 1 12 9 9 7
-2 15 -10 17 -17z m-2988 -2331 c0 -5 -4 -10 -10 -10 -5 0 -10 5 -10 10 0 6 5
10 10 10 6 0 10 -4 10 -10z m358 -273 c4 -96 -27 -88 -42 11 -7 49 -2 65 22
60 14 -3 18 -17 20 -71z"/>
<path d="M2450 5090 c19 -13 30 -13 30 0 0 6 -10 10 -22 10 -19 0 -20 -2 -8
-10z"/>
<path d="M80 4291 c0 -17 18 -31 41 -31 14 0 11 20 -5 36 -20 20 -36 18 -36
-5z"/>
<path d="M225 4250 c28 -12 55 -12 55 0 0 6 -17 10 -37 9 -31 0 -34 -2 -18 -9z"/>
<path d="M244 4175 c-4 -8 -12 -15 -20 -15 -8 0 -14 -7 -14 -15 0 -8 7 -15 15
-15 8 0 15 -5 15 -12 0 -6 3 -9 6 -5 4 3 13 0 21 -8 9 -10 35 -15 74 -15 33 0
59 -4 59 -10 0 -5 7 -10 15 -10 10 0 15 -10 15 -30 0 -16 5 -30 10 -30 6 0 10
-9 10 -20 0 -11 5 -20 10 -20 6 0 10 -9 10 -20 0 -13 7 -20 20 -20 11 0 20 5
20 11 0 7 10 9 25 5 22 -6 25 -3 25 23 0 33 -19 81 -31 81 -4 0 -9 10 -11 23
-2 17 -11 23 -35 25 -25 2 -33 8 -33 23 0 12 -7 19 -20 19 -11 0 -20 5 -20 10
0 6 -15 10 -32 10 -18 1 -44 7 -58 15 -33 19 -69 19 -76 0z"/>
<path d="M0 3552 c0 -13 9 -18 38 -18 21 -1 56 -7 78 -14 l39 -13 -33 -14
c-30 -12 -36 -33 -10 -33 5 0 24 -6 41 -14 18 -8 44 -17 59 -20 18 -4 25 -11
22 -20 -7 -19 14 -30 61 -31 35 0 40 -3 43 -25 2 -21 -2 -26 -23 -28 -53 -4
-61 -27 -14 -37 18 -4 35 -3 42 4 6 6 32 11 58 11 46 0 48 1 59 36 9 25 16 34
27 30 12 -5 14 -1 9 18 -4 15 -1 26 7 29 6 3 0 6 -15 6 -14 1 -40 13 -57 27
-17 14 -48 30 -68 36 l-38 11 63 14 c57 13 62 16 45 28 -30 21 -76 26 -260 30
-158 3 -173 2 -173 -13z"/>
<path d="M510 3515 c0 -13 8 -16 38 -13 20 2 37 8 37 13 0 6 -17 11 -37 13
-30 3 -38 0 -38 -13z"/>
<path d="M55 3091 c-9 -52 -2 -61 45 -61 22 0 45 -7 54 -16 9 -8 37 -22 63
-31 27 -9 54 -25 61 -35 7 -10 20 -18 28 -18 8 0 32 -9 54 -20 22 -11 47 -20
56 -20 10 0 26 -7 36 -17 10 -9 31 -16 48 -15 28 1 29 -1 23 -31 -6 -31 -6
-32 14 -15 15 14 26 16 52 8 18 -5 39 -14 46 -20 9 -7 16 -6 25 5 9 10 9 15 1
15 -6 0 -11 7 -11 15 0 16 -99 65 -131 65 -10 0 -21 5 -24 11 -9 13 -113 59
-136 59 -10 0 -21 5 -24 10 -3 6 -13 10 -22 10 -8 0 -26 9 -40 20 -14 11 -32
20 -40 20 -18 0 -73 41 -73 54 0 11 -32 28 -77 40 -18 6 -22 2 -28 -33z"/>
<path d="M40 2920 c0 -11 5 -20 10 -20 6 0 10 -11 10 -25 0 -20 5 -25 24 -25
34 0 42 28 12 40 -14 5 -27 18 -31 29 -8 27 -25 27 -25 1z"/>
<path d="M4381 2884 c0 -11 3 -14 6 -6 3 7 2 16 -1 19 -3 4 -6 -2 -5 -13z"/>
<path d="M570 2450 c0 -5 7 -10 15 -10 8 0 15 5 15 10 0 6 -7 10 -15 10 -8 0
-15 -4 -15 -10z"/>
<path d="M645 2440 c3 -5 13 -10 21 -10 8 0 14 5 14 10 0 6 -9 10 -21 10 -11
0 -17 -4 -14 -10z"/>
<path d="M320 2335 c0 -9 31 -34 43 -35 4 0 7 7 7 15 0 8 -4 15 -9 15 -5 0
-16 3 -25 6 -9 3 -16 3 -16 -1z"/>
<path d="M233 2290 c-13 -5 -23 -13 -23 -18 0 -16 61 -53 96 -59 44 -7 46 14
4 57 -31 32 -41 34 -77 20z"/>
<path d="M0 2220 c0 -11 6 -20 13 -20 6 0 41 -20 77 -44 63 -44 80 -48 80 -22
0 16 -131 106 -154 106 -9 0 -16 -8 -16 -20z"/>
<path d="M376 2115 c-29 -20 -49 -25 -96 -25 -59 0 -82 -15 -37 -24 34 -7 227
-25 277 -25 58 -1 86 15 44 25 -16 4 -38 12 -49 17 -11 6 -27 11 -35 12 -8 0
-19 10 -25 23 -13 29 -33 28 -79 -3z"/>
<path d="M54 1972 c27 -29 62 -43 111 -47 27 -2 99 -32 154 -66 33 -20 87 -23
85 -5 -1 6 -24 22 -51 36 -27 15 -56 31 -64 36 -28 18 -175 66 -219 71 l-45 5
29 -30z"/>
<path d="M473 1770 c-45 -18 -24 -56 35 -66 32 -5 42 -3 42 7 0 12 -46 71 -53
68 -1 0 -12 -4 -24 -9z"/>
<path d="M4440 1730 c0 -5 21 -10 46 -10 25 0 54 -4 64 -10 13 -7 19 -6 23 4
4 9 -5 16 -25 20 -47 9 -108 7 -108 -4z"/>
<path d="M4294 1679 c-3 -6 -1 -15 6 -19 11 -7 212 -24 255 -22 11 1 50 2 87
2 104 1 97 27 -11 44 -41 6 -43 5 -30 -11 13 -15 12 -16 -6 -9 -63 26 -287 37
-301 15z"/>
<path d="M520 1670 c0 -5 5 -10 10 -10 6 0 10 5 10 10 0 6 -4 10 -10 10 -5 0
-10 -4 -10 -10z"/>
<path d="M309 1498 c-38 -14 -14 -33 46 -36 71 -4 92 2 76 22 -14 16 -92 25
-122 14z"/>
<path d="M0 1297 c0 -22 6 -27 34 -33 34 -6 56 0 56 14 -1 18 -18 31 -53 37
-35 7 -37 6 -37 -18z"/>
<path d="M0 1130 c0 -17 4 -19 28 -14 35 9 39 13 22 24 -26 17 -50 11 -50 -10z"/>
<path d="M170 625 c0 -8 6 -15 14 -15 7 0 19 7 26 15 11 13 8 15 -14 15 -16 0
-26 -5 -26 -15z"/>
<path d="M5100 410 c0 -5 5 -10 10 -10 6 0 10 5 10 10 0 6 -4 10 -10 10 -5 0
-10 -4 -10 -10z"/>
<path d="M4582 399 c-14 -6 -15 -8 -2 -13 64 -25 153 -46 196 -46 51 0 91 -10
151 -36 28 -13 72 -59 165 -175 l27 -34 0 66 c1 77 -14 96 -107 139 -13 5 -38
21 -55 34 -69 51 -96 59 -230 65 -70 3 -136 3 -145 0z"/>
</g>
</svg>
